<mxfile host="65bd71144e">
    <diagram id="nkiO8wsCpvmSNRe8IvE8" name="Page-1">
        <mxGraphModel dx="465" dy="379" grid="1" gridSize="10" guides="1" tooltips="1" connect="1" arrows="1" fold="1" page="0" pageScale="1" pageWidth="850" pageHeight="1100" background="none" math="0" shadow="0">
            <root>
                <mxCell id="0"/>
                <mxCell id="1" parent="0"/>
                <mxCell id="46" value="Conta" style="swimlane;fontStyle=1;align=center;verticalAlign=top;childLayout=stackLayout;horizontal=1;startSize=26;horizontalStack=0;resizeParent=1;resizeParentMax=0;resizeLast=0;collapsible=1;marginBottom=0;whiteSpace=wrap;html=1;rounded=0;" vertex="1" parent="1">
                    <mxGeometry x="140" y="590" width="190" height="196" as="geometry"/>
                </mxCell>
                <mxCell id="47" value="-&amp;nbsp; Titular: String" style="text;strokeColor=none;fillColor=none;align=left;verticalAlign=top;spacingLeft=4;spacingRight=4;overflow=hidden;rotatable=0;points=[[0,0.5],[1,0.5]];portConstraint=eastwest;whiteSpace=wrap;html=1;rounded=0;" vertex="1" parent="46">
                    <mxGeometry y="26" width="190" height="26" as="geometry"/>
                </mxCell>
                <mxCell id="50" value="-&amp;nbsp; Saldo: Float" style="text;strokeColor=none;fillColor=none;align=left;verticalAlign=top;spacingLeft=4;spacingRight=4;overflow=hidden;rotatable=0;points=[[0,0.5],[1,0.5]];portConstraint=eastwest;whiteSpace=wrap;html=1;rounded=0;" vertex="1" parent="46">
                    <mxGeometry y="52" width="190" height="26" as="geometry"/>
                </mxCell>
                <mxCell id="48" value="" style="line;strokeWidth=1;fillColor=none;align=left;verticalAlign=middle;spacingTop=-1;spacingLeft=3;spacingRight=3;rotatable=0;labelPosition=right;points=[];portConstraint=eastwest;strokeColor=inherit;rounded=0;" vertex="1" parent="46">
                    <mxGeometry y="78" width="190" height="8" as="geometry"/>
                </mxCell>
                <mxCell id="49" value="+ getSaldo(): String" style="text;strokeColor=none;fillColor=none;align=left;verticalAlign=top;spacingLeft=4;spacingRight=4;overflow=hidden;rotatable=0;points=[[0,0.5],[1,0.5]];portConstraint=eastwest;whiteSpace=wrap;html=1;rounded=0;" vertex="1" parent="46">
                    <mxGeometry y="86" width="190" height="32" as="geometry"/>
                </mxCell>
                <mxCell id="51" value="+ depositar(): boolean" style="text;strokeColor=none;fillColor=none;align=left;verticalAlign=top;spacingLeft=4;spacingRight=4;overflow=hidden;rotatable=0;points=[[0,0.5],[1,0.5]];portConstraint=eastwest;whiteSpace=wrap;html=1;rounded=0;" vertex="1" parent="46">
                    <mxGeometry y="118" width="190" height="26" as="geometry"/>
                </mxCell>
                <mxCell id="52" value="+ sacar(): boolean" style="text;strokeColor=none;fillColor=none;align=left;verticalAlign=top;spacingLeft=4;spacingRight=4;overflow=hidden;rotatable=0;points=[[0,0.5],[1,0.5]];portConstraint=eastwest;whiteSpace=wrap;html=1;rounded=0;" vertex="1" parent="46">
                    <mxGeometry y="144" width="190" height="26" as="geometry"/>
                </mxCell>
                <mxCell id="53" value="+ transferir(float, conta): boolean" style="text;strokeColor=none;fillColor=none;align=left;verticalAlign=top;spacingLeft=4;spacingRight=4;overflow=hidden;rotatable=0;points=[[0,0.5],[1,0.5]];portConstraint=eastwest;whiteSpace=wrap;html=1;rounded=0;" vertex="1" parent="46">
                    <mxGeometry y="170" width="190" height="26" as="geometry"/>
                </mxCell>
                <mxCell id="55" value="COntaPoupança" style="swimlane;fontStyle=1;align=center;verticalAlign=top;childLayout=stackLayout;horizontal=1;startSize=26;horizontalStack=0;resizeParent=1;resizeParentMax=0;resizeLast=0;collapsible=1;marginBottom=0;whiteSpace=wrap;html=1;rounded=0;" vertex="1" parent="1">
                    <mxGeometry x="360" y="852" width="240" height="60" as="geometry"/>
                </mxCell>
                <mxCell id="57" value="" style="line;strokeWidth=1;fillColor=none;align=left;verticalAlign=middle;spacingTop=-1;spacingLeft=3;spacingRight=3;rotatable=0;labelPosition=right;points=[];portConstraint=eastwest;strokeColor=inherit;rounded=0;" vertex="1" parent="55">
                    <mxGeometry y="26" width="240" height="8" as="geometry"/>
                </mxCell>
                <mxCell id="58" value="+ sacar(float): boolean" style="text;strokeColor=none;fillColor=none;align=left;verticalAlign=top;spacingLeft=4;spacingRight=4;overflow=hidden;rotatable=0;points=[[0,0.5],[1,0.5]];portConstraint=eastwest;whiteSpace=wrap;html=1;rounded=0;" vertex="1" parent="55">
                    <mxGeometry y="34" width="240" height="26" as="geometry"/>
                </mxCell>
                <mxCell id="60" style="edgeStyle=none;html=1;entryX=1.002;entryY=0.231;entryDx=0;entryDy=0;entryPerimeter=0;endArrow=block;endFill=0;rounded=0;" edge="1" parent="1" source="55" target="53">
                    <mxGeometry relative="1" as="geometry">
                        <Array as="points">
                            <mxPoint x="480" y="766"/>
                        </Array>
                    </mxGeometry>
                </mxCell>
                <mxCell id="61" value="COntaPoupança" style="swimlane;fontStyle=1;align=center;verticalAlign=top;childLayout=stackLayout;horizontal=1;startSize=26;horizontalStack=0;resizeParent=1;resizeParentMax=0;resizeLast=0;collapsible=1;marginBottom=0;whiteSpace=wrap;html=1;rounded=0;" vertex="1" parent="1">
                    <mxGeometry x="110" y="940" width="240" height="60" as="geometry"/>
                </mxCell>
                <mxCell id="62" value="" style="line;strokeWidth=1;fillColor=none;align=left;verticalAlign=middle;spacingTop=-1;spacingLeft=3;spacingRight=3;rotatable=0;labelPosition=right;points=[];portConstraint=eastwest;strokeColor=inherit;rounded=0;" vertex="1" parent="61">
                    <mxGeometry y="26" width="240" height="8" as="geometry"/>
                </mxCell>
                <mxCell id="63" value="+ Calcularrendimento(): void" style="text;strokeColor=none;fillColor=none;align=left;verticalAlign=top;spacingLeft=4;spacingRight=4;overflow=hidden;rotatable=0;points=[[0,0.5],[1,0.5]];portConstraint=eastwest;whiteSpace=wrap;html=1;rounded=0;" vertex="1" parent="61">
                    <mxGeometry y="34" width="240" height="26" as="geometry"/>
                </mxCell>
                <mxCell id="65" style="edgeStyle=none;html=1;entryX=0.474;entryY=1.077;entryDx=0;entryDy=0;entryPerimeter=0;endArrow=block;endFill=0;rounded=0;" edge="1" parent="1" source="61" target="53">
                    <mxGeometry relative="1" as="geometry"/>
                </mxCell>
            </root>
        </mxGraphModel>
    </diagram>
</mxfile>